# Blender v2.83.0 OBJ File: 'sword.blend'
# www.blender.org
mtllib sword.mtl
o Sword
v -0.959122 0.413201 -0.413201
v -0.959122 0.413201 0.413201
v -0.423302 0.566556 0.048314
v -0.423302 0.566556 -0.048314
v 0.959122 -0.413201 0.413201
v 0.959122 0.413201 0.413201
v -0.959122 -0.413201 0.413201
v -0.959122 -0.413201 -0.413201
v 0.959122 -0.413201 -0.413201
v 0.529534 -0.633486 -0.228130
v -0.529534 -0.633486 -0.228130
v 0.959122 0.413201 -0.413201
v -0.423302 5.769372 0.048314
v -0.423302 5.769372 -0.048314
v 0.423302 0.566556 -0.048314
v 0.423302 0.566556 0.048314
v 0.423302 5.769372 0.048314
v 0.047456 6.368237 0.005416
v -0.047456 6.368237 0.005416
v 0.423302 5.769372 -0.048314
v 0.047456 6.368237 -0.005416
v -0.047456 6.368237 -0.005416
v 0.529534 -0.633486 0.228130
v -0.529534 -0.633486 0.228130
v -0.529534 -1.145642 0.228130
v 0.529534 -1.145642 0.228130
v 0.529534 -1.145642 -0.228130
v 0.383062 -1.593723 0.165028
v 0.383062 -1.593723 -0.165028
v -0.529534 -1.145642 -0.228130
v -0.383062 -1.593723 -0.165028
v 0.383062 -3.115801 -0.165028
v -0.383062 -3.115801 -0.165028
v -0.383062 -1.593723 0.165028
v 0.383062 -3.115801 0.165028
v -0.383062 -3.115801 0.165028
v -0.483098 -3.270540 0.208125
v 0.483098 -3.270540 0.208125
v 0.483098 -3.270540 -0.208125
v 0.483098 -3.520019 0.208125
v 0.483098 -3.520019 -0.208125
v -0.483098 -3.270540 -0.208125
v -0.483098 -3.520019 0.208125
v -0.173457 -3.724461 0.074728
v 0.173457 -3.724461 0.074728
v -0.483098 -3.520019 -0.208125
v -0.173457 -3.724461 -0.074728
v 0.173457 -3.724461 -0.074728
vn -0.2752 0.9614 0.0000
vn 0.0000 0.0000 1.0000
vn -1.0000 0.0000 0.0000
vn 0.0000 -0.6433 -0.7656
vn 1.0000 0.0000 0.0000
vn 0.0000 0.0000 -1.0000
vn 0.2752 0.9614 0.0000
vn 0.0000 0.9219 -0.3875
vn 0.0000 0.9219 0.3875
vn 0.0000 0.0714 0.9974
vn 0.0000 1.0000 0.0000
vn 0.0000 0.0714 -0.9974
vn 0.8470 0.5316 0.0000
vn -0.8470 0.5316 0.0000
vn 0.0000 -0.6433 0.7656
vn -0.4563 -0.8898 0.0000
vn 0.4563 -0.8898 0.0000
vn 0.9505 -0.3107 0.0000
vn 0.0000 -0.1395 -0.9902
vn 0.0000 -0.1395 0.9902
vn -0.9505 -0.3107 0.0000
vn 0.0000 0.2683 0.9633
vn -0.8398 0.5429 0.0000
vn 0.8398 0.5429 0.0000
vn 0.0000 0.2683 -0.9633
vn 0.0000 -0.5465 0.8375
vn 0.0000 -1.0000 0.0000
vn -0.5510 -0.8345 0.0000
vn 0.5510 -0.8345 0.0000
vn 0.0000 -0.5465 -0.8375
usemtl None
s off
f 1//1 2//1 3//1
f 1//1 3//1 4//1
f 5//2 6//2 2//2
f 5//2 2//2 7//2
f 7//3 2//3 1//3
f 7//3 1//3 8//3
f 8//4 9//4 10//4
f 8//4 10//4 11//4
f 9//5 12//5 6//5
f 9//5 6//5 5//5
f 8//6 1//6 12//6
f 8//6 12//6 9//6
f 4//3 3//3 13//3
f 4//3 13//3 14//3
f 6//7 12//7 15//7
f 6//7 15//7 16//7
f 12//8 1//8 4//8
f 12//8 4//8 15//8
f 2//9 6//9 16//9
f 2//9 16//9 3//9
f 13//10 17//10 18//10
f 13//10 18//10 19//10
f 3//2 16//2 17//2
f 3//2 17//2 13//2
f 15//6 4//6 14//6
f 15//6 14//6 20//6
f 16//5 15//5 20//5
f 16//5 20//5 17//5
f 21//11 22//11 19//11
f 21//11 19//11 18//11
f 20//12 14//12 22//12
f 20//12 22//12 21//12
f 17//13 20//13 21//13
f 17//13 21//13 18//13
f 14//14 13//14 19//14
f 14//14 19//14 22//14
f 23//2 24//2 25//2
f 23//2 25//2 26//2
f 5//15 7//15 24//15
f 5//15 24//15 23//15
f 7//16 8//16 11//16
f 7//16 11//16 24//16
f 9//17 5//17 23//17
f 9//17 23//17 10//17
f 27//18 26//18 28//18
f 27//18 28//18 29//18
f 24//3 11//3 30//3
f 24//3 30//3 25//3
f 10//5 23//5 26//5
f 10//5 26//5 27//5
f 11//6 10//6 27//6
f 11//6 27//6 30//6
f 31//6 29//6 32//6
f 31//6 32//6 33//6
f 30//19 27//19 29//19
f 30//19 29//19 31//19
f 26//20 25//20 34//20
f 26//20 34//20 28//20
f 25//21 30//21 31//21
f 25//21 31//21 34//21
f 35//22 36//22 37//22
f 35//22 37//22 38//22
f 28//2 34//2 36//2
f 28//2 36//2 35//2
f 34//3 31//3 33//3
f 34//3 33//3 36//3
f 29//5 28//5 35//5
f 29//5 35//5 32//5
f 39//5 38//5 40//5
f 39//5 40//5 41//5
f 36//23 33//23 42//23
f 36//23 42//23 37//23
f 32//24 35//24 38//24
f 32//24 38//24 39//24
f 33//25 32//25 39//25
f 33//25 39//25 42//25
f 40//26 43//26 44//26
f 40//26 44//26 45//26
f 42//6 39//6 41//6
f 42//6 41//6 46//6
f 38//2 37//2 43//2
f 38//2 43//2 40//2
f 37//3 42//3 46//3
f 37//3 46//3 43//3
f 47//27 48//27 45//27
f 47//27 45//27 44//27
f 43//28 46//28 47//28
f 43//28 47//28 44//28
f 41//29 40//29 45//29
f 41//29 45//29 48//29
f 46//30 41//30 48//30
f 46//30 48//30 47//30
